<?xml version="1.0" encoding="utf-8"?>
<!-- Generator: Adobe Illustrator 26.0.2, SVG Export Plug-In . SVG Version: 6.00 Build 0)  -->
<svg version="1.1" id="Calque_1" focusable="false" xmlns="http://www.w3.org/2000/svg" xmlns:xlink="http://www.w3.org/1999/xlink"
	 x="0px" y="0px" viewBox="0 0 448 512" style="enable-background:new 0 0 448 512;" xml:space="preserve">
<style type="text/css">
	.st0{fill:#FFFFFF;}
</style>
<path class="st0" d="M212.7,315.3L120,408l32.9,31c15.1,15.1,4.4,41-17,41H24c-13.3,0-24-10.7-24-24V344c0-21.4,25.8-32.1,40.9-17
	L72,360l92.7-92.7c6.2-6.2,16.4-6.2,22.6,0l25.4,25.4C218.9,298.9,218.9,309.1,212.7,315.3z M235.3,196.7L328,104l-32.9-31
	c-15.1-15.1-4.4-41,17-41h112c13.3,0,24,10.7,24,24v112c0,21.4-25.8,32.1-40.9,17L376,152l-92.7,92.7c-6.2,6.2-16.4,6.2-22.6,0
	l-25.4-25.4C229.1,213.1,229.1,202.9,235.3,196.7L235.3,196.7z"/>
</svg>
